<?xml version="1.0" encoding="utf-8"?>
<!-- Generator: Adobe Illustrator 27.9.4, SVG Export Plug-In . SVG Version: 9.03 Build 54784)  -->
<svg version="1.1" id="Layer_1" xmlns="http://www.w3.org/2000/svg" xmlns:xlink="http://www.w3.org/1999/xlink" x="0px" y="0px"
	 viewBox="0 0 291.77 416.45" style="enable-background:new 0 0 291.77 416.45;" xml:space="preserve">
<style type="text/css">
	.st0{clip-path:url(#SVGID_00000112627921655132951940000003502797779300294785_);enable-background:new    ;}
	.st1{clip-path:url(#SVGID_00000121269452840066708280000016024747829627111841_);fill:#FFFFFF;}
	.st2{clip-path:url(#SVGID_00000121269452840066708280000016024747829627111841_);fill:#2B2E34;}
</style>
<g>
	<defs>
		<rect id="SVGID_1_" x="1.41" y="3.8" width="288.95" height="408.85"/>
	</defs>
	<clipPath id="SVGID_00000129198118090940951730000009110176069605028256_">
		<use xlink:href="#SVGID_1_"  style="overflow:visible;"/>
	</clipPath>
	<g style="clip-path:url(#SVGID_00000129198118090940951730000009110176069605028256_);enable-background:new    ;">
		<g>
			<defs>
				<rect id="SVGID_00000062174975768707805200000011799874255379340685_" x="1.29" y="3.72" width="289.25" height="409.25"/>
			</defs>
			<clipPath id="SVGID_00000134931739381349257300000009527154445346208693_">
				<use xlink:href="#SVGID_00000062174975768707805200000011799874255379340685_"  style="overflow:visible;"/>
			</clipPath>
			<path style="clip-path:url(#SVGID_00000134931739381349257300000009527154445346208693_);fill:#FFFFFF;" d="M28.26,4.3
				C13.85,4.25,2.11,15.88,2.03,30.29l-0.11,355.7C2,400.4,13.72,412.04,28.13,412.01l235.38,0.14
				c14.41,0.05,26.15-11.58,26.22-25.99l0.11-355.69c-0.07-14.42-11.79-26.06-26.21-26.03L28.26,4.3z"/>
			<path style="clip-path:url(#SVGID_00000134931739381349257300000009527154445346208693_);fill:#2B2E34;" d="M28.25,3.8l0,1
				c-6.81-0.02-13.35,2.67-18.17,7.47c-4.83,4.75-7.55,11.24-7.54,18.02l-0.11,355.7c0.07,14.14,11.57,25.56,25.71,25.53
				l235.38,0.14c6.81,0.02,13.35-2.67,18.18-7.47c4.83-4.75,7.55-11.25,7.54-18.02l0.11-355.69c-0.07-14.14-11.57-25.56-25.71-25.53
				L28.26,4.8l0-0.5L28.25,3.8l235.39,0.14c14.69-0.03,26.64,11.84,26.71,26.53l-0.11,355.69c0.01,3.54-0.71,7.05-2.11,10.31
				c-4.22,9.84-13.91,16.21-24.61,16.19l-235.39-0.15c-14.69,0.03-26.64-11.84-26.71-26.53l0.11-355.7c0-3.54,0.71-7.05,2.1-10.3
				C7.86,10.15,17.55,3.78,28.25,3.8z"/>
			<path style="clip-path:url(#SVGID_00000134931739381349257300000009527154445346208693_);fill:#2B2E34;" d="M225.85,80.84
				l-0.01,12.2c-0.07,0.45-0.22,0.89-0.44,1.29c-0.3,0.65-0.66,1.29-1.05,1.89c-0.41,0.63-0.82,1.23-1.22,1.8
				c-0.29,0.38-0.55,0.78-0.79,1.2c-3.09,3.39-6.48,6.49-10.13,9.28l0.11-27.66l-13.51-0.01l0,6.7c-1.31-2.11-3.17-3.83-5.37-4.99
				c-2.25-1.16-4.75-1.75-7.28-1.72c-1.85,0-3.68,0.38-5.37,1.11c-1.7,0.72-3.25,1.74-4.59,3.01c-1.33,1.25-2.41,2.74-3.21,4.38
				c-0.8,1.63-1.22,3.42-1.21,5.24c-0.04,2.06,0.63,4.06,1.9,5.68c1.3,1.62,3.3,2.52,5.37,2.41c1.98,0.05,3.87-0.77,5.2-2.23
				c1.34-1.38,2.09-3.23,2.08-5.16c0.01-1.92-0.77-3.75-2.16-5.07c-1.34-1.39-3.18-2.17-5.11-2.15c-1.07,0.03-2.13,0.26-3.12,0.69
				c0.96-1.86,2.51-3.35,4.42-4.21c1.86-0.93,3.9-1.43,5.98-1.46c3.27-0.03,6.42,1.24,8.75,3.53c2.43,2.23,3.78,5.39,3.72,8.68
				c-0.02,1.71-0.38,3.41-1.04,4.99c-0.61,1.6-1.63,3.03-2.95,4.12c-3.32,2.69-6.89,5.05-10.66,7.04
				c-3.82,2.05-8.06,3.22-12.39,3.43l-0.03,86.3l13.51,0.01l0.02-87.85c2.54-1.37,4.97-2.83,7.28-4.38
				c2.36-1.59,4.46-3.53,6.24-5.76l-0.03,97.99l13.51,0.01l0.03-89.57c2.59-1.83,5.05-3.84,7.37-6.01c2.36-2.12,4.43-4.55,6.15-7.22
				l-0.03,102.81l13.51,0.01l0.04-120.51L225.85,80.84z M147.51,148.01L134,148l0.01-34.91c2.34-1.26,4.8-2.69,7.37-4.3
				c2.45-1.48,4.54-3.47,6.14-5.84L147.51,148.01z M147.53,80.61l0,6.7c-1.26-2.15-3.12-3.89-5.36-4.99
				c-2.26-1.14-4.76-1.73-7.29-1.72c-1.88-0.01-3.75,0.37-5.48,1.11c-1.68,0.72-3.22,1.74-4.54,3.01c-1.33,1.28-2.4,2.79-3.17,4.47
				c-0.8,1.72-1.21,3.6-1.2,5.5c-0.03,1.99,0.67,3.91,1.97,5.42c1.29,1.54,3.22,2.4,5.22,2.32c1.96,0.04,3.85-0.74,5.22-2.15
				c1.41-1.38,2.18-3.27,2.14-5.24c0.04-1.96-0.77-3.85-2.23-5.16c-1.38-1.33-3.22-2.07-5.13-2.07c-1.06,0.03-2.11,0.26-3.08,0.69
				c1.14-1.73,2.67-3.17,4.46-4.21c1.84-1,3.9-1.51,5.99-1.46c3.32-0.03,6.52,1.27,8.87,3.62c2.42,2.2,3.8,5.33,3.77,8.6
				c-0.03,1.74-0.38,3.46-1.04,5.07c-0.57,1.6-1.59,3.01-2.95,4.04c-3.39,2.66-7.02,5.02-10.83,7.04
				c-3.82,2.05-8.06,3.22-12.39,3.43l-0.03,86.3l13.51,0.01l0.02-49l13.51,0.01l-0.02,49l13.51,0.01l0.04-120.34L147.53,80.61z
				 M64.88,80.56l-13.51-0.01l-0.04,120.52l13.51,0.01L64.88,80.56z"/>
			<path style="clip-path:url(#SVGID_00000134931739381349257300000009527154445346208693_);fill:#2B2E34;" d="M144.21,268.39
				l-0.01,43.49c1.54-1.99,3.43-3.68,5.57-4.99c2.48-1.55,4.9-2.96,7.2-4.2l0.01-34.3L144.21,268.39z M143.45,314.3l0.01-46.66
				l14.27,0.01l-0.01,35.5l-0.2,0.11c-2.34,1.26-4.81,2.7-7.35,4.28c-2.4,1.45-4.46,3.41-6.03,5.73L143.45,314.3z M52.39,215.21
				l-0.04,119.76l12.76-0.15l0.01-11.84c0.06-0.51,0.22-1,0.47-1.45c0.31-0.67,0.67-1.32,1.08-1.94c0.39-0.61,0.81-1.22,1.23-1.82
				c0.27-0.37,0.53-0.76,0.76-1.16l0.02-0.05l0.03-0.04c3.11-3.4,6.51-6.52,10.18-9.32l0.61-0.46l-0.11,28.06l12.76,0.01l0-7.62
				l0.69,1.09c1.28,2.05,3.09,3.73,5.23,4.86c2.2,1.13,4.63,1.7,7.1,1.68c1.8,0,3.57-0.37,5.22-1.08c1.66-0.71,3.17-1.7,4.48-2.93
				c1.29-1.23,2.35-2.67,3.13-4.28c0.78-1.58,1.18-3.32,1.18-5.08c0.04-1.97-0.61-3.89-1.82-5.44c-1.22-1.54-3.12-2.38-5.08-2.27
				c-1.87-0.05-3.67,0.72-4.92,2.11c-1.27,1.31-1.99,3.07-1.98,4.9c-0.01,1.82,0.74,3.55,2.05,4.8c1.27,1.31,3.02,2.05,4.85,2.04
				c1.03-0.03,2.04-0.26,2.98-0.66l0.92-0.36l-0.44,0.88c-0.99,1.93-2.61,3.48-4.59,4.38c-1.91,0.96-4.01,1.47-6.14,1.5
				c-3.36,0.02-6.6-1.28-9.01-3.63c-2.5-2.3-3.9-5.56-3.84-8.96c0.02-1.76,0.39-3.5,1.07-5.13c0.64-1.66,1.69-3.13,3.06-4.27
				c3.34-2.7,6.93-5.07,10.72-7.08c3.77-2.01,7.93-3.19,12.19-3.45l0.03-85.58l-12.76-0.01l-0.03,87.7l-0.2,0.11
				c-2.52,1.36-4.95,2.83-7.25,4.36c-2.33,1.57-4.4,3.49-6.16,5.68l-0.67,0.83l0.03-98.68l-12.77-0.01l-0.03,89.39l-0.16,0.11
				c-2.58,1.82-5.02,3.82-7.33,5.98c-2.33,2.1-4.38,4.5-6.09,7.14l-0.69,1.11l0.03-103.74L52.39,215.21z M51.61,335.73l0-0.38
				l0.04-120.89l14.27,0.01l0,0.38L65.87,316.4c1.61-2.28,3.46-4.37,5.53-6.24c2.28-2.14,4.7-4.12,7.25-5.93l0.03-89.75l14.27,0.01
				l0,0.38l-0.03,96.96c1.65-1.92,3.55-3.62,5.66-5.03c2.25-1.51,4.65-2.95,7.11-4.29l0.03-88l14.27,0.01l-0.03,87.04l-0.36,0.02
				c-4.28,0.21-8.46,1.37-12.23,3.39c-3.75,1.99-7.3,4.33-10.6,7c-1.27,1.06-2.25,2.43-2.84,3.97c-0.65,1.53-0.99,3.18-1.01,4.84
				c-0.05,3.19,1.26,6.25,3.61,8.41c2.27,2.22,5.32,3.45,8.49,3.43c2.02-0.03,4.01-0.51,5.82-1.42c1.52-0.7,2.82-1.8,3.75-3.18
				c-0.74,0.24-1.51,0.36-2.29,0.37c-2.03,0.01-3.97-0.81-5.37-2.26c-1.46-1.39-2.29-3.32-2.27-5.34c-0.01-2.02,0.78-3.96,2.18-5.41
				c1.4-1.54,3.39-2.39,5.47-2.35c2.19-0.11,4.3,0.84,5.67,2.55c1.32,1.68,2.02,3.76,1.98,5.9c0,1.87-0.43,3.72-1.25,5.41
				c-0.82,1.68-1.93,3.2-3.29,4.49c-1.37,1.3-2.97,2.34-4.7,3.08c-1.74,0.75-3.62,1.14-5.52,1.14c-2.59,0.03-5.15-0.58-7.45-1.77
				c-1.9-0.99-3.54-2.4-4.82-4.12l0,5.88l-14.27-0.01l0.11-27.29c-3.38,2.64-6.54,5.56-9.44,8.73c-0.24,0.41-0.5,0.81-0.79,1.2
				c-0.42,0.59-0.83,1.19-1.21,1.79c-0.38,0.59-0.73,1.21-1.02,1.84c-0.2,0.35-0.33,0.73-0.4,1.13l-0.01,12.58L51.61,335.73z
				 M143.44,327.33l0.7,1.18c1.23,2.09,3.03,3.77,5.2,4.85c2.21,1.11,4.65,1.69,7.12,1.68l0,0.38l0-0.38
				c1.83,0.01,3.65-0.36,5.33-1.08c1.64-0.71,3.14-1.7,4.43-2.93c1.29-1.25,2.34-2.73,3.09-4.36c0.77-1.67,1.17-3.5,1.16-5.34
				c0.03-1.9-0.64-3.74-1.88-5.17c-1.21-1.46-3.04-2.27-4.94-2.19c-1.86-0.01-3.65,0.73-4.96,2.04c-1.31,1.32-2.04,3.11-2.03,4.97
				c-0.04,1.86,0.73,3.64,2.11,4.88c1.31,1.26,3.06,1.97,4.88,1.97c1.01-0.03,2.01-0.26,2.95-0.66l1.15-0.46l-0.7,1.02
				c-1.18,1.77-2.74,3.25-4.58,4.32c-1.89,1.03-4.02,1.55-6.18,1.51c-3.42,0.02-6.7-1.31-9.13-3.72c-2.5-2.27-3.91-5.49-3.89-8.87
				c0.03-1.79,0.39-3.55,1.07-5.21c0.59-1.67,1.66-3.13,3.07-4.2c3.41-2.67,7.06-5.04,10.89-7.07c3.77-2.01,7.93-3.19,12.19-3.45
				l0.02-85.58l-12.76-0.01l-0.02,49l-14.27-0.01l0.02-49l-12.76-0.01l-0.04,119.59l12.76,0.01L143.44,327.33z M156.47,335.79
				c-2.59,0.01-5.15-0.6-7.46-1.76c-1.91-0.95-3.56-2.34-4.81-4.07l0,5.83l-14.27-0.01l0-0.38l0.03-120.72l14.27,0.01l-0.02,49
				l12.76,0.01l0.02-49l14.27,0.01l-0.03,87.04l-0.36,0.02c-4.28,0.21-8.46,1.37-12.23,3.39c-3.79,2.01-7.4,4.36-10.78,7.01
				l-0.01,0.01c-1.3,0.99-2.27,2.33-2.82,3.87c-0.64,1.57-0.99,3.24-1.02,4.93c-0.02,3.17,1.31,6.2,3.66,8.34
				c2.29,2.27,5.39,3.53,8.61,3.51c2.03,0.05,4.03-0.44,5.81-1.41c1.39-0.81,2.62-1.87,3.62-3.14c-0.67,0.2-1.36,0.31-2.06,0.32
				c-2.01,0.01-3.94-0.77-5.39-2.17c-1.53-1.39-2.39-3.37-2.35-5.43c-0.02-2.06,0.79-4.04,2.25-5.5c1.45-1.46,3.43-2.27,5.49-2.26
				c2.12-0.07,4.15,0.84,5.51,2.46c1.35,1.57,2.08,3.59,2.06,5.66c0.01,1.95-0.41,3.89-1.23,5.66c-0.79,1.72-1.89,3.27-3.25,4.58
				c-1.36,1.29-2.93,2.34-4.65,3.08C160.32,335.41,158.4,335.8,156.47,335.79L156.47,335.79z M226.84,335.08l12.76,0.01l0.04-119.77
				l-12.77-0.01L226.84,335.08z M240.35,335.84l-14.27-0.01l0-0.38l0.04-120.89l14.27,0.01l0,0.38L240.35,335.84z"/>
		</g>
	</g>
</g>
</svg>
